<svg xmlns="http://www.w3.org/2000/svg" width="90" height="20" viewBox="0 0 90 20" fill="none"><path d="M11.8821 19.7101H0V0.289855H11.2734C15.1106 0.289855 17.0159 1.94203 17.0159 4.98551C17.0159 7.47826 15.8251 9.24638 12.5966 9.3913V9.68116C16.1427 9.82609 17.8363 11.6232 17.8363 14.3188C17.8363 17.5942 16.1162 19.7101 11.8821 19.7101ZM4.94865 5.1884V7.65217H10.7441C11.7497 7.65217 12.0408 7.33333 12.0408 6.43478C12.0408 5.53623 11.6439 5.1884 10.6118 5.1884H4.94865ZM4.94865 12.1159V14.8116H11.2469C12.4378 14.8116 12.8083 14.5507 12.8083 13.4493C12.8083 12.3768 12.4642 12.1159 11.2469 12.1159H4.94865Z" fill="#001F3F"></path><path d="M24.1311 19.7101H19.156V0.289855H24.1311V19.7101Z" fill="#001F3F"></path><path d="M30.9599 19.7101H25.9848V0.289855H31.2774L36.1996 7.56522L38.793 12.029H39.137L38.8989 7.7971V0.289855H43.874V19.7101H38.5813L33.3416 12.2319L31.0922 8.4058H30.7482L30.9599 12.1159V19.7101Z" fill="#001F3F"></path><path d="M55.2884 20C49.1224 20 45.4705 16.058 45.4705 10C45.4705 3.94203 49.1224 0 55.2884 0C61.6131 0 65.2122 3.94203 65.2122 10C65.2122 16.058 61.6131 20 55.2884 20ZM55.2884 14.7826C58.8874 14.7826 59.9195 13.8551 59.9195 10C59.9195 6.14493 58.8874 5.21739 55.2884 5.21739C51.6894 5.21739 50.7631 6.14493 50.7631 10C50.7631 13.8551 51.6894 14.7826 55.2884 14.7826Z" fill="#001F3F"></path><path fill-rule="evenodd" clip-rule="evenodd" d="M72.1502 0L77.541 6.05572L82.9318 0H89.8691L81.8143 9.04832L81.6782 9.20118L81.0097 9.95212L81.0115 9.9541L77.5519 13.8609L77.541 13.8487L72.1502 19.9044H65.2129L74.0723 9.9522L65.2129 0H72.1502ZM90 19.9044L83 12L79.5 16L83.0627 19.9044L90 19.9044Z" fill="#001F3F"></path></svg>